<mxfile modified="2020-10-13T15:01:07.460Z" host="diagram.qzrok.cn" agent="Mozilla/5.0 (Windows NT 10.0; Win64; x64) AppleWebKit/537.36 (KHTML, like Gecko) Chrome/80.0.3987.149 Safari/537.36" etag="PKG6AegLaUAbp4jjhq2d" version="12.9.3" type="github">
  <diagram id="WI9T0HZ2pTsCkuznbFz-" name="Page-1">
    <mxGraphModel dx="1422" dy="794" grid="0" gridSize="10" guides="1" tooltips="1" connect="1" arrows="1" fold="1" page="1" pageScale="1" pageWidth="1169" pageHeight="827" math="0" shadow="0">
      <root>
        <mxCell id="0" />
        <mxCell id="1" parent="0" />
        <mxCell id="pKDJgcheWdyCbOi9JpQY-50" value="" style="ellipse;whiteSpace=wrap;html=1;rounded=1;dashed=1;strokeColor=#000000;fillColor=none;" vertex="1" parent="1">
          <mxGeometry x="760" y="239" width="200" height="370" as="geometry" />
        </mxCell>
        <mxCell id="pKDJgcheWdyCbOi9JpQY-24" value="自动部署" style="edgeStyle=orthogonalEdgeStyle;rounded=0;orthogonalLoop=1;jettySize=auto;html=1;entryX=0;entryY=0.633;entryDx=0;entryDy=0;entryPerimeter=0;" edge="1" parent="1" source="pKDJgcheWdyCbOi9JpQY-12" target="pKDJgcheWdyCbOi9JpQY-10">
          <mxGeometry relative="1" as="geometry" />
        </mxCell>
        <mxCell id="pKDJgcheWdyCbOi9JpQY-12" value="" style="rounded=1;whiteSpace=wrap;html=1;strokeColor=#000000;fillColor=none;dashed=1;arcSize=55;" vertex="1" parent="1">
          <mxGeometry x="428" y="256" width="260" height="210" as="geometry" />
        </mxCell>
        <mxCell id="pKDJgcheWdyCbOi9JpQY-16" value="提交" style="edgeStyle=orthogonalEdgeStyle;rounded=0;orthogonalLoop=1;jettySize=auto;html=1;entryX=0;entryY=0.5;entryDx=0;entryDy=0;" edge="1" parent="1" source="pKDJgcheWdyCbOi9JpQY-1" target="pKDJgcheWdyCbOi9JpQY-5">
          <mxGeometry relative="1" as="geometry" />
        </mxCell>
        <mxCell id="pKDJgcheWdyCbOi9JpQY-1" value="开发" style="rounded=0;whiteSpace=wrap;html=1;" vertex="1" parent="1">
          <mxGeometry x="58" y="331" width="120" height="60" as="geometry" />
        </mxCell>
        <mxCell id="pKDJgcheWdyCbOi9JpQY-2" value="构建" style="rounded=0;whiteSpace=wrap;html=1;" vertex="1" parent="1">
          <mxGeometry x="498" y="410" width="120" height="40" as="geometry" />
        </mxCell>
        <mxCell id="pKDJgcheWdyCbOi9JpQY-3" value="生产环境" style="rounded=0;whiteSpace=wrap;html=1;" vertex="1" parent="1">
          <mxGeometry x="798" y="501" width="120" height="60" as="geometry" />
        </mxCell>
        <mxCell id="pKDJgcheWdyCbOi9JpQY-17" value="拉取" style="edgeStyle=orthogonalEdgeStyle;rounded=0;orthogonalLoop=1;jettySize=auto;html=1;entryX=0;entryY=0.5;entryDx=0;entryDy=0;" edge="1" parent="1" source="pKDJgcheWdyCbOi9JpQY-5" target="pKDJgcheWdyCbOi9JpQY-12">
          <mxGeometry relative="1" as="geometry" />
        </mxCell>
        <mxCell id="pKDJgcheWdyCbOi9JpQY-5" value="代码管理" style="rounded=0;whiteSpace=wrap;html=1;" vertex="1" parent="1">
          <mxGeometry x="248" y="331" width="120" height="60" as="geometry" />
        </mxCell>
        <mxCell id="pKDJgcheWdyCbOi9JpQY-6" value="代码质量分析" style="rounded=0;whiteSpace=wrap;html=1;" vertex="1" parent="1">
          <mxGeometry x="498" y="290" width="120" height="40" as="geometry" />
        </mxCell>
        <mxCell id="pKDJgcheWdyCbOi9JpQY-7" value="单元测试" style="rounded=0;whiteSpace=wrap;html=1;" vertex="1" parent="1">
          <mxGeometry x="498" y="350" width="120" height="40" as="geometry" />
        </mxCell>
        <mxCell id="pKDJgcheWdyCbOi9JpQY-8" value="镜像仓库" style="rounded=0;whiteSpace=wrap;html=1;" vertex="1" parent="1">
          <mxGeometry x="298" y="553" width="120" height="60" as="geometry" />
        </mxCell>
        <mxCell id="pKDJgcheWdyCbOi9JpQY-9" value="maven仓库" style="rounded=0;whiteSpace=wrap;html=1;" vertex="1" parent="1">
          <mxGeometry x="158" y="553" width="120" height="60" as="geometry" />
        </mxCell>
        <mxCell id="pKDJgcheWdyCbOi9JpQY-10" value="开发环境" style="rounded=0;whiteSpace=wrap;html=1;" vertex="1" parent="1">
          <mxGeometry x="798" y="290" width="120" height="60" as="geometry" />
        </mxCell>
        <mxCell id="pKDJgcheWdyCbOi9JpQY-55" value="" style="edgeStyle=orthogonalEdgeStyle;curved=1;orthogonalLoop=1;jettySize=auto;html=1;strokeColor=#0A0A0A;" edge="1" parent="1" source="pKDJgcheWdyCbOi9JpQY-11" target="pKDJgcheWdyCbOi9JpQY-54">
          <mxGeometry relative="1" as="geometry" />
        </mxCell>
        <mxCell id="pKDJgcheWdyCbOi9JpQY-11" value="测试环境" style="rounded=0;whiteSpace=wrap;html=1;" vertex="1" parent="1">
          <mxGeometry x="798" y="376" width="120" height="60" as="geometry" />
        </mxCell>
        <mxCell id="pKDJgcheWdyCbOi9JpQY-15" value="CI 服务" style="text;html=1;strokeColor=none;fillColor=none;align=center;verticalAlign=middle;whiteSpace=wrap;rounded=0;" vertex="1" parent="1">
          <mxGeometry x="498" y="262" width="110" height="20" as="geometry" />
        </mxCell>
        <mxCell id="pKDJgcheWdyCbOi9JpQY-23" value="运行环境" style="text;html=1;strokeColor=none;fillColor=none;align=center;verticalAlign=middle;whiteSpace=wrap;rounded=0;" vertex="1" parent="1">
          <mxGeometry x="803" y="262" width="110" height="20" as="geometry" />
        </mxCell>
        <mxCell id="pKDJgcheWdyCbOi9JpQY-31" value="自动部署" style="edgeStyle=orthogonalEdgeStyle;rounded=0;orthogonalLoop=1;jettySize=auto;html=1;entryX=0;entryY=0.5;entryDx=0;entryDy=0;" edge="1" parent="1" target="pKDJgcheWdyCbOi9JpQY-11">
          <mxGeometry relative="1" as="geometry">
            <mxPoint x="688" y="376" as="sourcePoint" />
            <mxPoint x="798" y="342.98" as="targetPoint" />
          </mxGeometry>
        </mxCell>
        <mxCell id="pKDJgcheWdyCbOi9JpQY-32" value="" style="curved=1;endArrow=classic;html=1;exitX=0.04;exitY=0.68;exitDx=0;exitDy=0;strokeColor=#919191;entryX=1;entryY=0.5;entryDx=0;entryDy=0;exitPerimeter=0;" edge="1" parent="1" source="pKDJgcheWdyCbOi9JpQY-50" target="pKDJgcheWdyCbOi9JpQY-8">
          <mxGeometry width="50" height="50" relative="1" as="geometry">
            <mxPoint x="758" y="492" as="sourcePoint" />
            <mxPoint x="668" y="571" as="targetPoint" />
            <Array as="points">
              <mxPoint x="738" y="561" />
            </Array>
          </mxGeometry>
        </mxCell>
        <mxCell id="pKDJgcheWdyCbOi9JpQY-33" value="拉取镜像" style="text;html=1;align=center;verticalAlign=middle;resizable=0;points=[];labelBackgroundColor=#ffffff;" vertex="1" connectable="0" parent="pKDJgcheWdyCbOi9JpQY-32">
          <mxGeometry x="-0.0996" y="6" relative="1" as="geometry">
            <mxPoint x="-18.150000000000002" y="-1.6999999999999957" as="offset" />
          </mxGeometry>
        </mxCell>
        <mxCell id="pKDJgcheWdyCbOi9JpQY-34" value="制品" style="rounded=0;whiteSpace=wrap;html=1;" vertex="1" parent="1">
          <mxGeometry x="228" y="471" width="120" height="40" as="geometry" />
        </mxCell>
        <mxCell id="pKDJgcheWdyCbOi9JpQY-35" value="上传" style="endArrow=classic;html=1;strokeColor=#919191;exitX=0.5;exitY=1;exitDx=0;exitDy=0;entryX=0.5;entryY=0;entryDx=0;entryDy=0;" edge="1" parent="1" source="pKDJgcheWdyCbOi9JpQY-34" target="pKDJgcheWdyCbOi9JpQY-9">
          <mxGeometry width="50" height="50" relative="1" as="geometry">
            <mxPoint x="278" y="458" as="sourcePoint" />
            <mxPoint x="328" y="408" as="targetPoint" />
          </mxGeometry>
        </mxCell>
        <mxCell id="pKDJgcheWdyCbOi9JpQY-36" value="上传" style="endArrow=classic;html=1;strokeColor=#919191;exitX=0.5;exitY=1;exitDx=0;exitDy=0;entryX=0.5;entryY=0;entryDx=0;entryDy=0;" edge="1" parent="1" source="pKDJgcheWdyCbOi9JpQY-34" target="pKDJgcheWdyCbOi9JpQY-8">
          <mxGeometry width="50" height="50" relative="1" as="geometry">
            <mxPoint x="298" y="521" as="sourcePoint" />
            <mxPoint x="228" y="563" as="targetPoint" />
          </mxGeometry>
        </mxCell>
        <mxCell id="pKDJgcheWdyCbOi9JpQY-37" value="" style="endArrow=classic;html=1;strokeColor=#919191;exitX=0.5;exitY=1;exitDx=0;exitDy=0;" edge="1" parent="1" source="pKDJgcheWdyCbOi9JpQY-12" target="pKDJgcheWdyCbOi9JpQY-34">
          <mxGeometry width="50" height="50" relative="1" as="geometry">
            <mxPoint x="548" y="481" as="sourcePoint" />
            <mxPoint x="598" y="431" as="targetPoint" />
            <Array as="points">
              <mxPoint x="448" y="491" />
            </Array>
          </mxGeometry>
        </mxCell>
        <mxCell id="pKDJgcheWdyCbOi9JpQY-40" value="" style="shape=flexArrow;endArrow=classic;html=1;strokeColor=#919191;endWidth=27;endSize=6.7;width=25;" edge="1" parent="1">
          <mxGeometry width="50" height="50" relative="1" as="geometry">
            <mxPoint x="999" y="531" as="sourcePoint" />
            <mxPoint x="919" y="530.5" as="targetPoint" />
          </mxGeometry>
        </mxCell>
        <mxCell id="pKDJgcheWdyCbOi9JpQY-41" value="审核发布" style="text;html=1;align=center;verticalAlign=middle;resizable=0;points=[];labelBackgroundColor=#ffffff;" vertex="1" connectable="0" parent="pKDJgcheWdyCbOi9JpQY-40">
          <mxGeometry x="-0.4666" y="-1" relative="1" as="geometry">
            <mxPoint x="-14.010000000000002" as="offset" />
          </mxGeometry>
        </mxCell>
        <mxCell id="pKDJgcheWdyCbOi9JpQY-42" value="" style="endArrow=classic;html=1;strokeColor=#919191;entryX=0;entryY=0.5;entryDx=0;entryDy=0;exitX=0.25;exitY=0;exitDx=0;exitDy=0;curved=1;" edge="1" parent="1" source="pKDJgcheWdyCbOi9JpQY-9" target="pKDJgcheWdyCbOi9JpQY-2">
          <mxGeometry width="50" height="50" relative="1" as="geometry">
            <mxPoint x="428" y="576" as="sourcePoint" />
            <mxPoint x="478" y="526" as="targetPoint" />
            <Array as="points">
              <mxPoint x="168" y="441" />
              <mxPoint x="398" y="411" />
            </Array>
          </mxGeometry>
        </mxCell>
        <mxCell id="pKDJgcheWdyCbOi9JpQY-43" value="依赖库" style="text;html=1;align=center;verticalAlign=middle;resizable=0;points=[];autosize=1;" vertex="1" parent="1">
          <mxGeometry x="158" y="471" width="50" height="20" as="geometry" />
        </mxCell>
        <mxCell id="pKDJgcheWdyCbOi9JpQY-44" value="" style="endArrow=none;dashed=1;html=1;strokeColor=#919191;entryX=0.5;entryY=1;entryDx=0;entryDy=0;exitX=0.5;exitY=0;exitDx=0;exitDy=0;" edge="1" parent="1" source="pKDJgcheWdyCbOi9JpQY-7" target="pKDJgcheWdyCbOi9JpQY-6">
          <mxGeometry width="50" height="50" relative="1" as="geometry">
            <mxPoint x="548" y="481" as="sourcePoint" />
            <mxPoint x="598" y="431" as="targetPoint" />
          </mxGeometry>
        </mxCell>
        <mxCell id="pKDJgcheWdyCbOi9JpQY-45" value="" style="endArrow=none;dashed=1;html=1;strokeColor=#919191;exitX=0.5;exitY=0;exitDx=0;exitDy=0;" edge="1" parent="1" source="pKDJgcheWdyCbOi9JpQY-2" target="pKDJgcheWdyCbOi9JpQY-7">
          <mxGeometry width="50" height="50" relative="1" as="geometry">
            <mxPoint x="556" y="411" as="sourcePoint" />
            <mxPoint x="598" y="431" as="targetPoint" />
          </mxGeometry>
        </mxCell>
        <mxCell id="pKDJgcheWdyCbOi9JpQY-51" value="" style="shape=curlyBracket;whiteSpace=wrap;html=1;rounded=1;strokeColor=#000000;fillColor=none;direction=south;" vertex="1" parent="1">
          <mxGeometry x="58" y="146" width="340" height="20" as="geometry" />
        </mxCell>
        <mxCell id="pKDJgcheWdyCbOi9JpQY-52" value="" style="shape=curlyBracket;whiteSpace=wrap;html=1;rounded=1;strokeColor=#000000;fillColor=none;direction=south;" vertex="1" parent="1">
          <mxGeometry x="428" y="146" width="520" height="20" as="geometry" />
        </mxCell>
        <mxCell id="pKDJgcheWdyCbOi9JpQY-53" value="" style="shape=curlyBracket;whiteSpace=wrap;html=1;rounded=1;strokeColor=#000000;fillColor=none;direction=south;" vertex="1" parent="1">
          <mxGeometry x="978" y="146" width="160" height="20" as="geometry" />
        </mxCell>
        <mxCell id="pKDJgcheWdyCbOi9JpQY-54" value="系统测试" style="rounded=0;whiteSpace=wrap;html=1;" vertex="1" parent="1">
          <mxGeometry x="998" y="376" width="120" height="60" as="geometry" />
        </mxCell>
        <mxCell id="pKDJgcheWdyCbOi9JpQY-61" style="edgeStyle=orthogonalEdgeStyle;curved=1;orthogonalLoop=1;jettySize=auto;html=1;strokeColor=#8C8C8C;exitX=0;exitY=0.5;exitDx=0;exitDy=0;" edge="1" parent="1" source="pKDJgcheWdyCbOi9JpQY-58" target="pKDJgcheWdyCbOi9JpQY-1">
          <mxGeometry relative="1" as="geometry">
            <Array as="points">
              <mxPoint x="118" y="221" />
            </Array>
          </mxGeometry>
        </mxCell>
        <mxCell id="pKDJgcheWdyCbOi9JpQY-58" value="代码质量分析报告" style="shape=document;whiteSpace=wrap;html=1;boundedLbl=1;rounded=1;shadow=0;strokeColor=#000000;fillColor=none;" vertex="1" parent="1">
          <mxGeometry x="268" y="191" width="110" height="59" as="geometry" />
        </mxCell>
        <mxCell id="pKDJgcheWdyCbOi9JpQY-59" value="监控平台" style="shape=document;whiteSpace=wrap;html=1;boundedLbl=1;rounded=1;shadow=0;strokeColor=#000000;fillColor=none;" vertex="1" parent="1">
          <mxGeometry x="633" y="191" width="110" height="59" as="geometry" />
        </mxCell>
        <mxCell id="pKDJgcheWdyCbOi9JpQY-60" value="测试报告&lt;br&gt;Bug管理" style="shape=document;whiteSpace=wrap;html=1;boundedLbl=1;rounded=1;shadow=0;strokeColor=#000000;fillColor=none;" vertex="1" parent="1">
          <mxGeometry x="1003" y="191" width="110" height="59" as="geometry" />
        </mxCell>
        <mxCell id="pKDJgcheWdyCbOi9JpQY-63" value="" style="curved=1;endArrow=classic;html=1;strokeColor=#A3A3A3;exitX=0.25;exitY=0;exitDx=0;exitDy=0;entryX=1;entryY=0.5;entryDx=0;entryDy=0;" edge="1" parent="1" source="pKDJgcheWdyCbOi9JpQY-6" target="pKDJgcheWdyCbOi9JpQY-58">
          <mxGeometry width="50" height="50" relative="1" as="geometry">
            <mxPoint x="558" y="431" as="sourcePoint" />
            <mxPoint x="608" y="381" as="targetPoint" />
            <Array as="points">
              <mxPoint x="458" y="221" />
            </Array>
          </mxGeometry>
        </mxCell>
        <mxCell id="pKDJgcheWdyCbOi9JpQY-72" value="开发" style="text;html=1;strokeColor=none;fillColor=none;align=center;verticalAlign=middle;whiteSpace=wrap;rounded=0;shadow=0;" vertex="1" parent="1">
          <mxGeometry x="208" y="111" width="40" height="20" as="geometry" />
        </mxCell>
        <mxCell id="pKDJgcheWdyCbOi9JpQY-73" value="运维" style="text;html=1;strokeColor=none;fillColor=none;align=center;verticalAlign=middle;whiteSpace=wrap;rounded=0;shadow=0;" vertex="1" parent="1">
          <mxGeometry x="668" y="111" width="40" height="20" as="geometry" />
        </mxCell>
        <mxCell id="pKDJgcheWdyCbOi9JpQY-74" value="测试" style="text;html=1;strokeColor=none;fillColor=none;align=center;verticalAlign=middle;whiteSpace=wrap;rounded=0;shadow=0;" vertex="1" parent="1">
          <mxGeometry x="1038" y="111" width="40" height="20" as="geometry" />
        </mxCell>
      </root>
    </mxGraphModel>
  </diagram>
</mxfile>
